<svg width="33" height="22" viewBox="0 0 33 22" fill="none" xmlns="http://www.w3.org/2000/svg">
<path d="M11.4413 8.63928C11.4413 8.63928 8.60737 11.142 8.63268 14.7959C8.65798 18.4498 11.4413 20.7022 11.4413 20.7022" stroke="#CCCCCC" stroke-width="2" stroke-linecap="round"/>
<path d="M12.8038 10.1909C12.8038 10.1909 10.6579 12.0186 10.6771 14.687C10.6962 17.3554 12.8038 19.0004 12.8038 19.0004" stroke="#CCCCCC" stroke-width="1.5" stroke-linecap="round"/>
<path d="M20.4124 10.1909C20.4124 10.1909 22.5583 12.0186 22.5392 14.687C22.52 17.3554 20.4124 19.0004 20.4124 19.0004" stroke="#CCCCCC" stroke-width="1.5" stroke-linecap="round"/>
<path d="M21.8728 8.63928C21.8728 8.63928 24.7067 11.142 24.6814 14.7959C24.6561 18.4498 21.8728 20.7022 21.8728 20.7022" stroke="#CCCCCC" stroke-width="2" stroke-linecap="round"/>
<ellipse cx="16.6031" cy="14.6957" rx="4.30152" ry="4.30461" fill="#CCCCCC"/>
<path d="M18.3145 14.2482C18.6245 14.4446 18.6245 14.8968 18.3145 15.0931L15.9157 16.6121C15.5828 16.8229 15.1482 16.5838 15.1482 16.1897V13.1516C15.1482 12.7576 15.5828 12.5184 15.9157 12.7292L18.3145 14.2482Z" fill="white"/>
<path d="M5.6697 12.4042C5.6697 12.4042 2.99627 10.5434 1.74203 12.4042C0.487781 14.265 1.18095 18.1193 1.27995 18.9985C1.37895 19.8777 2.29995 20.9813 3.45832 20.9898C4.62619 20.9985 5.6697 19.9474 5.6697 18.9985C5.6697 18.0495 5.6697 11.0307 5.6697 10.5434C5.6697 10.056 7.51801 1.33734 15.9674 1.011C24.4168 0.684658 27.1893 7.70556 27.1893 10.5434C27.1893 13.3812 27.1893 13.1224 27.1893 13.1224M27.1893 13.1224C27.1893 13.1224 27.1893 18.054 27.1893 18.9985C27.1893 19.943 28.5172 21.1218 29.7967 20.9898C30.9302 20.873 31.9091 20.1759 31.9091 18.9985C31.9091 17.821 31.9091 13.8406 31.9091 13.1224C31.9091 12.4042 30.6549 11.6229 29.7967 11.6555C28.9386 11.6882 27.1893 13.1224 27.1893 13.1224Z" stroke="#03AC0E" stroke-width="2"/>
</svg>
