<svg width="41" height="29" viewBox="0 0 41 29" fill="none" xmlns="http://www.w3.org/2000/svg">
<ellipse cx="20.6875" cy="18.8045" rx="5.4275" ry="5.59599" fill="#CCCCCC"/>
<path d="M23.0467 18.3532C23.3491 18.5505 23.3491 18.9934 23.0467 19.1907L19.6249 21.4232C19.2923 21.6402 18.8517 21.4015 18.8517 21.0044V16.5395C18.8517 16.1424 19.2923 15.9037 19.6249 16.1207L23.0467 18.3532Z" fill="white"/>
<rect x="27.466" y="6.53308" width="2.20963" height="24.6717" transform="rotate(34.2678 27.466 6.53308)" fill="#AAAAAA"/>
<path d="M6.89206 15.8254C6.89206 15.8254 3.51883 13.4064 1.93626 15.8254C0.3537 18.2444 1.22832 23.2551 1.35324 24.398C1.47815 25.541 2.64024 26.9756 4.10183 26.9868C5.5754 26.998 6.89206 25.6316 6.89206 24.398C6.89206 23.1644 6.89206 14.0399 6.89206 13.4064C6.89206 12.7728 9.22419 1.43855 19.8854 1.0143C30.5465 0.590055 34.0447 9.71722 34.0447 13.4064C34.0447 17.0955 34.0447 16.7591 34.0447 16.7591M34.0447 16.7591C34.0447 16.7591 34.0447 23.1702 34.0447 24.398C34.0447 25.6259 35.7202 27.1583 37.3347 26.9868C38.7649 26.8348 40 25.9287 40 24.398C40 22.8673 40 17.6928 40 16.7591C40 15.8254 38.4175 14.8097 37.3347 14.8522C36.2519 14.8946 34.0447 16.7591 34.0447 16.7591Z" stroke="#CCCCCC" stroke-width="2"/>
</svg>
