<svg width="114" height="95" viewBox="0 0 114 95" fill="none" xmlns="http://www.w3.org/2000/svg">
<path d="M39.677 52.6432L45.03 57.5063C45.03 57.5063 46.7407 59.0992 47.7303 60.2243C48.6061 61.2199 49.8358 62.8935 49.8358 62.8935" stroke="#028C0B" stroke-width="0.5"/>
<path d="M39.4519 54.2566C39.4519 54.2566 42.6265 57.0199 44.5303 59.1151C45.4861 60.167 46.1339 60.8055 47.1235 61.9306C47.9993 62.9262 48.4796 63.5029 48.4796 63.5029" stroke="#028C0B" stroke-width="0.5"/>
<path d="M19.7551 36.8173L28.9851 43.8003L33.8411 47.556L37.9259 51.086" stroke="#028C0B" stroke-width="0.5"/>
<path d="M18.8551 37.9697L23.4182 41.1664L28.3039 45.0147L34.059 49.537L37.8676 52.6946" stroke="#028C0B" stroke-width="0.5"/>
<path d="M2.68384 33.5041C2.68384 33.5041 4.57169 29.5116 6.90296 28.6689C8.14634 28.2195 9.43582 28.0934 10.2685 28.394C11.1011 28.6947 20.0603 35.5457 20.0603 36.2278C20.0603 36.5901 18.5482 38.2642 18.2434 38.3892C17.8859 38.5358 14.6583 36.1403 13.7316 36.1403C12.939 36.1403 11.3294 38.864 11.3294 38.864" stroke="#028C0B" stroke-width="0.5"/>
<path d="M1.97876 34.712L2.7011 33.4231C2.7011 33.4231 2.4699 35.1816 2.79794 36.2227C3.40667 37.8245 4.85933 39.0152 6.92072 39.7311C7.29973 39.8627 8.88527 39.8657 10.1027 39.6177C10.603 39.5157 11.2649 39.0152 11.2649 39.0152L10.976 39.9803" stroke="#028C0B" stroke-width="0.5"/>
<path d="M1.14116 36.1687C1.31637 35.5624 1.99009 34.6914 1.99009 34.6914C1.99009 34.6914 2.00383 36.2516 2.16539 36.9833C3.25697 39.7722 5.96508 41.2493 7.95932 41.0975C9.95356 40.9456 10.9911 39.9377 10.9911 39.9377C10.9911 39.9377 10.4647 40.8582 10.0075 41.346C8.47886 42.9768 5.93829 43.3893 4.61761 43.0855C2.92876 42.5739 1.74735 41.2217 1.31633 39.9377C0.885316 38.6538 0.965943 36.775 1.14116 36.1687Z" stroke="#028C0B" stroke-width="0.5"/>
<path d="M28.2372 22.2804C28.2372 22.2804 35.5475 32.5985 37.5597 44.4051C39.5719 56.2117 34.706 63.4968 34.706 63.4968" stroke="#028C0B" stroke-width="0.5"/>
<path d="M29.3618 21.3584C29.3618 21.3584 36.9056 31.2 39.1247 43.4287C41.3438 55.6574 36.6151 63.5408 36.6151 63.5408" stroke="#028C0B" stroke-width="0.5"/>
<path d="M27.053 22.4567C27.053 22.4567 27.2165 22.7249 27.4266 22.6896C27.7888 22.6286 29.5966 21.1496 29.8054 20.7287C29.8853 20.5673 29.5966 20.3604 29.5966 20.3604" stroke="#028C0B" stroke-width="0.5"/>
<path d="M19.4095 6.65015C19.4095 6.65015 17.1325 8.72001 16.4942 11.664C16.401 12.094 16.1384 13.7413 16.5695 14.944C17.1229 16.4878 18.7615 17.7941 19.4766 17.8197C21.2719 17.884 21.4256 17.7905 22.6583 18.0054C23.2484 18.1084 26.8066 22.5799 27.0397 22.4303C27.4955 22.138 29.4585 20.5941 29.5756 20.3465C29.6928 20.0989 26.1609 16.2947 26.1609 15.8059C26.1609 15.4843 27.0397 14.7897 27.0397 14.7897" stroke="#028C0B" stroke-width="0.5"/>
<path d="M20.4566 5.72107C20.4566 5.72107 19.6 6.28784 19.394 6.68515C19.1879 7.08246 19.3427 10.0658 21.454 12.3468C23.5653 14.6278 26.7372 14.9293 27.1251 14.7555C27.5131 14.5817 28.0337 13.3277 28.0337 13.3277" stroke="#028C0B" stroke-width="0.5"/>
<path d="M26.0665 0.650406C23.184 1.0651 20.4623 5.68513 20.4623 5.68513C20.4623 5.68513 21.0436 9.47781 22.6146 11.0943C24.224 12.7504 28.0361 13.3204 28.0361 13.3204C28.0361 13.3204 32.1013 10.7629 32.6656 8.05686C33.1491 5.73843 32.9495 3.81628 31.3052 2.14834C29.7957 0.617236 28.1699 0.347798 26.0665 0.650406Z" stroke="#028C0B" stroke-width="0.5"/>
<path d="M29.6648 4.26189C28.7265 3.31865 27.8339 1.5418 28.3832 1.07282C28.9325 0.603834 30.6853 1.34875 31.5262 2.4016C32.295 3.36415 32.7925 5.07478 32.2586 5.49687C31.7246 5.91895 30.4621 5.06336 29.6648 4.26189Z" stroke="#028C0B" stroke-width="0.5"/>
<path d="M61.6662 66.8842C57.5929 69.6385 58.4935 72.6127 58.4935 72.6127C58.4935 72.6127 57.6147 72.2508 57.2152 71.8202C56.8157 71.3896 50.933 52.4206 56.2833 42.294C63.9517 27.7798 96.2663 24.8026 103.934 41.1929C111.813 58.0333 104.485 72.5729 104.485 72.5729C104.485 72.5729 102.089 68.4801 100.815 66.8842C96.7836 61.8367 83.2837 85.8871 85.0941 89.6392C86.4847 92.5213 93.1073 91.352 93.1073 91.352C93.1073 91.352 93.765 92.9947 94.6977 93.2482C99.3361 94.5089 108.4 76.4266 108.4 76.4266C108.4 76.4266 107.842 72.8688 108.693 68.2339C109.732 62.5776 112.223 55.2046 112.315 49.3285C112.818 17.0117 50.8697 9.65699 49.0041 51.2859C48.8797 54.0627 51.6394 60.2731 52.9507 64.6403C54.2163 68.8554 54.4029 69.9079 53.9589 72.9399C53.3371 77.1853 60.8067 92.0446 67.1715 92.8812C68.1791 93.0136 68.456 90.6179 68.456 90.6179C68.456 90.6179 71.6157 92.51 75.7964 90.0674C79.977 87.6248 73.9609 79.6881 72.3574 76.7493C70.754 73.8105 65.7395 64.1298 61.6662 66.8842Z" stroke="#03AC0E" stroke-width="1.5"/>
</svg>
