<svg width="114" height="95" viewBox="0 0 114 95" fill="none" xmlns="http://www.w3.org/2000/svg">
<path d="M39.677 52.8728L45.03 57.7359C45.03 57.7359 46.7407 59.3288 47.7303 60.4539C48.6061 61.4495 49.8358 63.1232 49.8358 63.1232" stroke="#96030C" stroke-width="0.5"/>
<path d="M39.4519 54.4862C39.4519 54.4862 42.6265 57.2495 44.5303 59.3447C45.4861 60.3967 46.1339 61.0351 47.1235 62.1602C47.9993 63.1558 48.4796 63.7325 48.4796 63.7325" stroke="#96030C" stroke-width="0.5"/>
<path d="M19.7551 37.0469L28.9851 44.0299L33.8411 47.7857L37.9259 51.3156" stroke="#96030C" stroke-width="0.5"/>
<path d="M18.8551 38.1993L23.4182 41.396L28.3039 45.2443L34.059 49.7666L37.8676 52.9242" stroke="#96030C" stroke-width="0.5"/>
<path d="M2.68384 33.7337C2.68384 33.7337 4.57169 29.7412 6.90296 28.8985C8.14634 28.4491 9.43582 28.323 10.2685 28.6237C11.1011 28.9243 20.0603 35.7753 20.0603 36.4574C20.0603 36.8197 18.5482 38.4939 18.2434 38.6188C17.8859 38.7654 14.6583 36.3699 13.7316 36.3699C12.939 36.3699 11.3294 39.0936 11.3294 39.0936" stroke="#96030C" stroke-width="0.5"/>
<path d="M1.97876 34.9416L2.7011 33.6527C2.7011 33.6527 2.4699 35.4112 2.79794 36.4523C3.40667 38.0541 4.85933 39.2448 6.92072 39.9607C7.29973 40.0923 8.88527 40.0954 10.1027 39.8473C10.603 39.7453 11.2649 39.2448 11.2649 39.2448L10.976 40.2099" stroke="#96030C" stroke-width="0.5"/>
<path d="M1.14116 36.3983C1.31637 35.792 1.99009 34.921 1.99009 34.921C1.99009 34.921 2.00383 36.4812 2.16539 37.2129C3.25697 40.0018 5.96508 41.4789 7.95932 41.3271C9.95356 41.1752 10.9911 40.1674 10.9911 40.1674C10.9911 40.1674 10.4647 41.0878 10.0075 41.5756C8.47886 43.2064 5.93829 43.6189 4.61761 43.3152C2.92876 42.8035 1.74735 41.4513 1.31633 40.1674C0.885316 38.8834 0.965943 37.0046 1.14116 36.3983Z" stroke="#96030C" stroke-width="0.5"/>
<path d="M28.2372 22.51C28.2372 22.51 35.5475 32.8281 37.5597 44.6347C39.5719 56.4413 34.706 63.7264 34.706 63.7264" stroke="#96030C" stroke-width="0.5"/>
<path d="M29.3618 21.588C29.3618 21.588 36.9056 31.4296 39.1247 43.6583C41.3438 55.887 36.6151 63.7704 36.6151 63.7704" stroke="#96030C" stroke-width="0.5"/>
<path d="M27.053 22.6863C27.053 22.6863 27.2165 22.9545 27.4266 22.9192C27.7888 22.8582 29.5966 21.3793 29.8054 20.9583C29.8853 20.7969 29.5966 20.59 29.5966 20.59" stroke="#96030C" stroke-width="0.5"/>
<path d="M19.4095 6.87976C19.4095 6.87976 17.1325 8.94962 16.4942 11.8936C16.401 12.3236 16.1384 13.9709 16.5695 15.1737C17.1229 16.7174 18.7615 18.0237 19.4766 18.0493C21.2719 18.1136 21.4256 18.0201 22.6583 18.2351C23.2484 18.338 26.8066 22.8095 27.0397 22.66C27.4955 22.3676 29.4585 20.8237 29.5756 20.5761C29.6928 20.3285 26.1609 16.5243 26.1609 16.0355C26.1609 15.7139 27.0397 15.0193 27.0397 15.0193" stroke="#96030C" stroke-width="0.5"/>
<path d="M20.4566 5.95068C20.4566 5.95068 19.6 6.51745 19.394 6.91476C19.1879 7.31207 19.3427 10.2954 21.454 12.5764C23.5653 14.8574 26.7372 15.1589 27.1251 14.9851C27.5131 14.8113 28.0337 13.5573 28.0337 13.5573" stroke="#96030C" stroke-width="0.5"/>
<path d="M26.0665 0.88002C23.184 1.29471 20.4623 5.91474 20.4623 5.91474C20.4623 5.91474 21.0436 9.70742 22.6146 11.3239C24.224 12.98 28.0361 13.55 28.0361 13.55C28.0361 13.55 32.1013 10.9925 32.6656 8.28647C33.1491 5.96804 32.9495 4.04589 31.3052 2.37795C29.7957 0.84685 28.1699 0.577412 26.0665 0.88002Z" stroke="#96030C" stroke-width="0.5"/>
<path d="M29.6648 4.4915C28.7265 3.54826 27.8339 1.77141 28.3832 1.30243C28.9325 0.833448 30.6853 1.57836 31.5262 2.63121C32.295 3.59376 32.7925 5.3044 32.2586 5.72648C31.7246 6.14857 30.4621 5.29298 29.6648 4.4915Z" stroke="#96030C" stroke-width="0.5"/>
<path opacity="0.5" d="M61.6662 67.1138C57.5929 69.8682 58.4935 72.8423 58.4935 72.8423C58.4935 72.8423 57.6147 72.4804 57.2152 72.0498C56.8157 71.6192 50.933 52.6502 56.2833 42.5236C63.9517 28.0094 96.2663 25.0322 103.934 41.4225C111.813 58.263 104.485 72.8025 104.485 72.8025C104.485 72.8025 102.089 68.7098 100.815 67.1138C96.7836 62.0663 83.2837 86.1167 85.0941 89.8688C86.4847 92.7509 93.1073 91.5816 93.1073 91.5816C93.1073 91.5816 93.765 93.2243 94.6977 93.4778C99.3361 94.7385 108.4 76.6562 108.4 76.6562C108.4 76.6562 107.842 73.0984 108.693 68.4635C109.732 62.8072 112.223 55.4342 112.315 49.5581C112.818 17.2414 50.8697 9.8866 49.0041 51.5155C48.8797 54.2923 51.6394 60.5027 52.9507 64.8699C54.2163 69.085 54.4029 70.1375 53.9589 73.1696C53.3371 77.415 60.8067 92.2742 67.1715 93.1108C68.1791 93.2432 68.456 90.8475 68.456 90.8475C68.456 90.8475 71.6157 92.7396 75.7964 90.297C79.977 87.8544 73.9609 79.9177 72.3574 76.9789C70.754 74.0401 65.7395 64.3594 61.6662 67.1138Z" stroke="#96030C" stroke-width="1.5"/>
</svg>
