<svg width="114" height="95" viewBox="0 0 114 95" fill="none" xmlns="http://www.w3.org/2000/svg">
<path d="M39.677 53.1024L45.03 57.9656C45.03 57.9656 46.7407 59.5584 47.7303 60.6835C48.6061 61.6792 49.8358 63.3528 49.8358 63.3528" stroke="black" stroke-opacity="0.25" stroke-width="0.5"/>
<path d="M39.4519 54.7158C39.4519 54.7158 42.6265 57.4792 44.5303 59.5743C45.4861 60.6263 46.1339 61.2647 47.1235 62.3898C47.9993 63.3854 48.4796 63.9621 48.4796 63.9621" stroke="black" stroke-opacity="0.25" stroke-width="0.5"/>
<path d="M19.7551 37.2765L28.9851 44.2595L33.8411 48.0153L37.9259 51.5452" stroke="black" stroke-opacity="0.25" stroke-width="0.5"/>
<path d="M18.8551 38.429L23.4182 41.6256L28.3039 45.474L34.059 49.9962L37.8676 53.1538" stroke="black" stroke-opacity="0.25" stroke-width="0.5"/>
<path d="M2.68384 33.9633C2.68384 33.9633 4.57169 29.9708 6.90296 29.1281C8.14634 28.6787 9.43582 28.5526 10.2685 28.8533C11.1011 29.1539 20.0603 36.0049 20.0603 36.687C20.0603 37.0493 18.5482 38.7235 18.2434 38.8484C17.8859 38.995 14.6583 36.5995 13.7316 36.5995C12.939 36.5995 11.3294 39.3232 11.3294 39.3232" stroke="black" stroke-opacity="0.25" stroke-width="0.5"/>
<path d="M1.97876 35.1712L2.7011 33.8823C2.7011 33.8823 2.4699 35.6408 2.79794 36.6819C3.40667 38.2837 4.85933 39.4745 6.92072 40.1903C7.29973 40.3219 8.88527 40.325 10.1027 40.0769C10.603 39.975 11.2649 39.4745 11.2649 39.4745L10.976 40.4395" stroke="black" stroke-opacity="0.25" stroke-width="0.5"/>
<path d="M1.14116 36.6279C1.31637 36.0216 1.99009 35.1506 1.99009 35.1506C1.99009 35.1506 2.00383 36.7108 2.16539 37.4425C3.25697 40.2314 5.96508 41.7086 7.95932 41.5567C9.95356 41.4048 10.9911 40.397 10.9911 40.397C10.9911 40.397 10.4647 41.3174 10.0075 41.8052C8.47886 43.436 5.93829 43.8486 4.61761 43.5448C2.92876 43.0332 1.74735 41.6809 1.31633 40.397C0.885316 39.113 0.965943 37.2342 1.14116 36.6279Z" stroke="black" stroke-opacity="0.25" stroke-width="0.5"/>
<path d="M28.2372 22.7396C28.2372 22.7396 35.5475 33.0577 37.5597 44.8643C39.5719 56.6709 34.706 63.956 34.706 63.956" stroke="black" stroke-opacity="0.25" stroke-width="0.5"/>
<path d="M29.3618 21.8176C29.3618 21.8176 36.9056 31.6592 39.1247 43.8879C41.3438 56.1166 36.6151 64 36.6151 64" stroke="black" stroke-opacity="0.25" stroke-width="0.5"/>
<path d="M27.053 22.9159C27.053 22.9159 27.2165 23.1841 27.4266 23.1488C27.7888 23.0879 29.5966 21.6089 29.8054 21.1879C29.8853 21.0265 29.5966 20.8196 29.5966 20.8196" stroke="black" stroke-opacity="0.25" stroke-width="0.5"/>
<path d="M19.4095 7.10938C19.4095 7.10938 17.1325 9.17923 16.4942 12.1232C16.401 12.5532 16.1384 14.2005 16.5695 15.4033C17.1229 16.9471 18.7615 18.2533 19.4766 18.2789C21.2719 18.3433 21.4256 18.2497 22.6583 18.4647C23.2484 18.5676 26.8066 23.0391 27.0397 22.8896C27.4955 22.5973 29.4585 21.0533 29.5756 20.8057C29.6928 20.5581 26.1609 16.7539 26.1609 16.2651C26.1609 15.9435 27.0397 15.2489 27.0397 15.2489" stroke="black" stroke-opacity="0.25" stroke-width="0.5"/>
<path d="M20.4566 6.1803C20.4566 6.1803 19.6 6.74707 19.394 7.14438C19.1879 7.54168 19.3427 10.5251 21.454 12.806C23.5653 15.087 26.7372 15.3886 27.1251 15.2147C27.5131 15.0409 28.0337 13.7869 28.0337 13.7869" stroke="black" stroke-opacity="0.25" stroke-width="0.5"/>
<path d="M26.0665 1.10963C23.184 1.52433 20.4623 6.14436 20.4623 6.14436C20.4623 6.14436 21.0436 9.93704 22.6146 11.5536C24.224 13.2096 28.0361 13.7797 28.0361 13.7797C28.0361 13.7797 32.1013 11.2221 32.6656 8.51609C33.1491 6.19766 32.9495 4.27551 31.3052 2.60757C29.7957 1.07646 28.1699 0.807026 26.0665 1.10963Z" stroke="black" stroke-opacity="0.25" stroke-width="0.5"/>
<path d="M29.6648 4.72111C28.7265 3.77787 27.8339 2.00103 28.3832 1.53205C28.9325 1.06306 30.6853 1.80798 31.5262 2.86082C32.295 3.82337 32.7925 5.53401 32.2586 5.9561C31.7246 6.37818 30.4621 5.52259 29.6648 4.72111Z" stroke="black" stroke-opacity="0.25" stroke-width="0.5"/>
<path d="M61.6662 67.3434C57.5929 70.0978 58.4935 73.072 58.4935 73.072C58.4935 73.072 57.6147 72.71 57.2152 72.2794C56.8157 71.8488 50.933 52.8798 56.2833 42.7532C63.9517 28.2391 96.2663 25.2618 103.934 41.6521C111.813 58.4926 104.485 73.0322 104.485 73.0322C104.485 73.0322 102.089 68.9394 100.815 67.3434C96.7836 62.296 83.2837 86.3463 85.0941 90.0984C86.4847 92.9805 93.1073 91.8112 93.1073 91.8112C93.1073 91.8112 93.765 93.4539 94.6977 93.7074C99.3361 94.9681 108.4 76.8858 108.4 76.8858C108.4 76.8858 107.842 73.328 108.693 68.6932C109.732 63.0368 112.223 55.6638 112.315 49.7877C112.818 17.471 50.8697 10.1162 49.0041 51.7451C48.8797 54.5219 51.6394 60.7323 52.9507 65.0996C54.2163 69.3146 54.4029 70.3671 53.9589 73.3992C53.3371 77.6446 60.8067 92.5039 67.1715 93.3404C68.1791 93.4729 68.456 91.0771 68.456 91.0771C68.456 91.0771 71.6157 92.9692 75.7964 90.5266C79.977 88.084 73.9609 80.1473 72.3574 77.2085C70.754 74.2697 65.7395 64.589 61.6662 67.3434Z" stroke="black" stroke-opacity="0.25" stroke-width="1.5"/>
</svg>
