<svg width="18" height="21" viewBox="0 0 18 21" fill="none" xmlns="http://www.w3.org/2000/svg">
<path fill-rule="evenodd" clip-rule="evenodd" d="M17.2489 18.7904C17.0235 20.0287 15.7891 20.3256 15.7891 20.3256H4.71104C4.71107 20.3256 4.71109 20.3256 4.71109 20.3256H2.49624C2.49624 20.3256 1.26187 20.0287 1.03651 18.7904C0.729498 17.1034 1.85213 14.461 3.14373 13.0044C4.38365 11.6061 5.78192 11.0873 6.25266 10.9442C6.34637 10.9093 6.40059 10.8988 6.40059 10.8988H11.8682C11.8682 10.8988 13.6236 11.2924 15.1417 13.0044C16.4333 14.4609 17.5559 17.1034 17.2489 18.7904Z" fill="#03AC0E"/>
<path d="M2.49624 20.3256C2.49624 20.3256 1.26187 20.0287 1.03651 18.7904C0.729498 17.1034 1.85213 14.4609 3.14372 13.0044C4.66178 11.2924 6.41717 10.8988 6.41717 10.8988L7.65495 11.5351C7.65495 11.5351 3.38441 14.1146 3.83984 19.1498C3.85176 19.2815 4.01605 19.6281 4.20312 19.8451C4.4305 20.1088 4.71109 20.3256 4.71109 20.3256H2.49624Z" fill="#028C0B"/>
<path d="M9.58984 11.7552H8.69922V15.0013C8.69922 15.0013 8.80078 15.3646 9.16016 15.3646C9.5 15.3646 9.58984 15.0013 9.58984 15.0013V11.7552Z" fill="#028C0B"/>
<path d="M4.58839 4.43384C4.58839 4.43384 4.98326 0.466994 9.1275 0.467041C13.2717 0.467088 13.6953 4.43384 13.6953 4.43384V7.71393C13.6953 7.71393 13.1637 11.6946 9.1275 11.7474C5.09133 11.8002 4.58839 7.71393 4.58839 7.71393V4.43384Z" fill="#FFD18D"/>
<path d="M4.5884 4.43384C4.5884 4.43384 4.98326 0.466994 9.1275 0.467041C13.2717 0.467088 13.6953 4.43384 13.6953 4.43384V5.4853C13.6953 5.4853 12.7963 4.97237 9.1275 5.02038C5.45874 5.06838 4.58839 5.4853 4.58839 5.4853L4.5884 4.43384Z" fill="#ECF0F1"/>
<g style="mix-blend-mode:plus-darker">
<path d="M4.58838 4.43377C5.29843 0.00583959 9.43242 0.461781 9.43242 0.461781C9.43242 0.461781 6.51026 1.47362 6.20492 4.43377C6.20492 5.69913 6.2127 6.78224 6.20492 7.71386C6.70667 11.1506 9.49191 11.7219 9.49191 11.7219C9.49191 11.7219 5.52452 12.4526 4.58838 7.71386V4.43377Z" fill="#EEEEEE"/>
</g>
</svg>
