<svg width="22" height="26" viewBox="0 0 22 26" fill="none" xmlns="http://www.w3.org/2000/svg">
<path opacity="0.5" fill-rule="evenodd" clip-rule="evenodd" d="M6.04293 7.32515C6.04293 7.32515 4.08044 5.65023 3.68215 4.96382C3.86041 4.04576 4.97155 2.43028 4.97155 2.43028C4.97155 2.43028 5.14964 1.7636 4.61532 1.09436C4.55195 1.07258 4.49295 1.05172 4.43742 1.03208L4.43741 1.03208C3.89206 0.839239 3.68076 0.764521 2.94548 1.09436C1.66729 2.05368 1.07524 4.67894 1.07524 4.67894C1.07524 4.67894 0.831931 5.55742 1.07524 5.87996C2.2706 7.56142 5.14964 10.1337 5.14964 10.1337V24.383C5.14964 24.383 5.48365 25.0749 5.88437 25.2959C6.48203 25.4663 6.98091 25.3851 7.37609 25.2959C7.88817 24.8978 7.88817 24.383 7.88817 24.383V16.7018H8.5561V24.383C8.5561 24.383 8.7096 25.3851 10.1591 25.2959C11.436 25.2342 11.3652 24.383 11.3652 24.383V10.4379C11.3652 10.4379 12.9443 10.9639 13.9916 10.827C14.4286 10.7516 15.3687 10.2161 15.5063 9.46521C15.5063 8.56362 15.1033 6.92219 15.1033 6.92219L17.827 7.56142V3.15633L12.1156 4.2263L11.5181 5.87996C11.5181 5.87996 11.824 6.02338 11.9905 6.15789C12.5967 6.64744 12.6298 8.04778 12.6298 8.04778C12.6298 8.04778 11.6626 7.56142 10.7955 7.32515H6.04293ZM11.3208 3.98761C11.3208 5.63762 9.96496 6.97522 8.29245 6.97522C6.61994 6.97522 5.2641 5.63762 5.2641 3.98761C5.2641 2.3376 6.61994 1 8.29245 1C9.96496 1 11.3208 2.3376 11.3208 3.98761ZM20.5705 2.7135C20.5705 2.7135 19.1252 3.28617 18.6068 3.50439C18.4979 3.70897 18.5315 3.82488 18.6068 3.99535C18.682 4.16581 19.0295 4.11126 19.0295 4.11126L20.8569 3.42941C20.8569 3.42941 21.0154 3.0899 20.9115 2.91802C20.8311 2.78514 20.5705 2.7135 20.5705 2.7135ZM20.7739 5.07618C20.7739 5.07618 19.2193 5.06412 18.6569 5.07164C18.4792 5.22035 18.4667 5.34039 18.4725 5.52665C18.4782 5.7129 18.8208 5.79286 18.8208 5.79286L20.7704 5.84724C20.7704 5.84724 21.0448 5.59209 21.0131 5.39377C20.9885 5.24046 20.7739 5.07618 20.7739 5.07618ZM18.6068 7.32874C19.1252 7.54696 20.5705 8.11963 20.5705 8.11963C20.5705 8.11963 20.8311 8.04799 20.9115 7.91511C21.0154 7.74323 20.8569 7.40372 20.8569 7.40372L19.0295 6.72187C19.0295 6.72187 18.682 6.66732 18.6068 6.83778C18.5315 7.00825 18.4979 7.12416 18.6068 7.32874Z" fill="#4D6B53"/>
</svg>
