<svg width="30" height="18" viewBox="0 0 30 18" fill="none" xmlns="http://www.w3.org/2000/svg">
<path fill-rule="evenodd" clip-rule="evenodd" d="M13.7112 15.1429V11.4305H23.8554C23.8554 11.4305 26.147 11.125 26.422 9.13893C26.6864 4.89951 21.6249 5.74734 21.6249 5.74734V7.65702L17.8513 3.8835L21.6249 0.094697V1.95854H24.0693C24.0693 1.95854 30.1605 2.69004 29.9969 8.6195C30.104 14.6082 24.0693 15.1429 24.0693 15.1429H13.7112ZM17.2726 2.09473V5.80713H7.12837C7.12837 5.80713 4.83677 6.11268 4.56179 8.09874C4.29733 12.3382 9.3589 11.4903 9.3589 11.4903V9.58065L13.1324 13.3542L9.3589 17.143V15.2791H6.91451C6.91451 15.2791 0.823248 14.5476 0.986878 8.61818C0.879774 2.62943 6.91451 2.09473 6.91451 2.09473H17.2726Z" fill="#4D6B53" fill-opacity="0.5"/>
</svg>
