<svg width="21" height="22" viewBox="0 0 21 22" fill="none" xmlns="http://www.w3.org/2000/svg">
<path d="M12.7719 0.448504L8.84032 0.494044L8.43958 3.07843L7.01872 3.7122L4.93906 2.23215L2.1763 4.98732L3.72536 7.25741L3.26926 8.53185L0.966824 8.91135V12.9803L3.56067 13.4538L4.03415 14.5243L2.3786 16.8464L5.15158 19.5828L7.69848 17.7563L8.58368 18.0651L9.12874 21.154H13.0755L13.622 17.8599L14.3658 17.5715L16.9616 19.4083L19.7396 16.6227L17.8876 14.0042L18.2291 13.1769L20.9691 12.6835V8.63805L18.2899 8.21301L17.868 7.11331L19.5422 4.81269L16.7946 2.03475L14.4713 3.65484L13.195 3.07843L12.7719 0.448504Z" fill="#03AC0E"/>
<ellipse cx="10.9316" cy="10.86" rx="4.53" ry="4.52899" fill="white"/>
<ellipse cx="10.9618" cy="10.8292" rx="3.675" ry="3.67462" fill="#03AC0E"/>
</svg>
