<svg width="25" height="23" viewBox="0 0 25 23" fill="none" xmlns="http://www.w3.org/2000/svg">
<g opacity="0.5">
<path fill-rule="evenodd" clip-rule="evenodd" d="M1.60223 8.19357C1.60223 8.19357 3.35154 0.261831 12.6093 0.0968857C17.5175 0.00943454 20.7395 2.93152 22.3023 5.92661C23.6871 8.58069 23.6819 11.3447 23.6819 11.3447H20.5746C20.5746 11.3447 20.1129 3.32502 12.6093 3.20429C9.39007 3.1525 7.05265 5.25636 6.46125 5.92661C5.86985 6.59687 4.9065 8.19357 4.9065 8.19357H6.52583L2.80576 11.3447L0.00476074 8.19357H1.60223ZM23.0845 14.9016C23.0845 14.9016 21.3352 22.8333 12.0775 22.9983C7.16918 23.0857 3.9472 20.1636 2.38443 17.1685C0.99959 14.5144 1.00478 11.7504 1.00478 11.7504H4.11213C4.11213 11.7504 4.57384 19.7701 12.0775 19.8908C15.2966 19.9426 17.6341 17.8388 18.2255 17.1685C18.8169 16.4983 19.7802 14.9016 19.7802 14.9016H18.1609L21.881 11.7504L24.6819 14.9016H23.0845Z" fill="#4D6B53"/>
<path fill-rule="evenodd" clip-rule="evenodd" d="M8.04913 8.02209L12.4428 6L16.824 8.02209V8.68664L16.858 9.10356L12.3977 11.1201L8.058 9.10198L8.04913 9.10806V9.09785L8.04688 9.0968V8.03821L8.04913 8.03855V8.02209ZM15.5509 8.20935L15.5814 8.23088L12.3977 9.6358L9.32155 8.23554L9.35974 8.20935L12.4428 6.81136L15.5509 8.20935ZM8.05798 14.2145V9.88818L9.91376 10.744L12.4536 11.865L16.858 9.90552V14.2491L12.5317 16.2519L9.13684 14.7122V14.7045L8.05798 14.2145ZM9.16771 11.8303L9.39286 11.9306L10.6069 12.4892L10.6069 14.6914L9.16771 14.0671V11.8303Z" fill="black"/>
</g>
</svg>
