<svg width="25" height="21" viewBox="0 0 25 21" fill="none" xmlns="http://www.w3.org/2000/svg">
<path opacity="0.5" fill-rule="evenodd" clip-rule="evenodd" d="M9.57914 1.05121L9.57916 1.05148C7.33102 1.28277 3.91441 2.22097 3.91441 2.22097C3.91441 2.22097 3.56179 2.51999 3.40367 2.76465C3.2344 3.02654 3.10711 3.50603 3.10711 3.50603V4.70872H0.800603C0.800603 4.70872 0.535375 4.79311 0.388735 4.88995C0.214098 5.00527 0.00980335 5.26887 0.00980335 5.26887C0.00980335 5.26887 0.00955062 8.69566 0.00980335 9.98077C0.157825 10.2114 0.388735 10.2114 0.388735 10.2114H1.9868C1.9868 10.2114 2.3163 10.2114 2.3163 9.84897V6.32328H3.10711V18.3007C3.10711 18.3007 3.36225 18.8991 3.66726 19.1574C3.97283 19.4163 4.60635 19.5693 4.60635 19.5693C4.60635 19.5693 4.48859 20.4077 4.72167 20.8544H7.72015C7.85172 20.772 7.72015 19.5693 7.72015 19.5693H7.91516H17.0945H17.2895C17.2895 19.5693 17.158 20.772 17.2895 20.8544H20.288C20.5211 20.4077 20.4033 19.5693 20.4033 19.5693C20.4033 19.5693 21.0369 19.4163 21.3424 19.1574C21.6474 18.8991 21.9026 18.3007 21.9026 18.3007V6.32328H22.6934V9.84897C22.6934 10.2114 23.0229 10.2114 23.0229 10.2114H24.6209C24.6209 10.2114 24.8519 10.2114 24.9999 9.98077C25.0001 8.69566 24.9999 5.26887 24.9999 5.26887C24.9999 5.26887 24.7956 5.00527 24.6209 4.88995C24.4743 4.79311 24.2091 4.70872 24.2091 4.70872H21.9026V3.50603C21.9026 3.50603 21.7753 3.02654 21.606 2.76465C21.4479 2.51999 21.0953 2.22097 21.0953 2.22097C21.0953 2.22097 17.6787 1.28277 15.4305 1.05148L15.4305 1.05121L15.4233 1.05074C14.5502 0.961408 13.4853 0.940791 12.5048 0.949274C11.5244 0.940791 10.4595 0.961408 9.5864 1.05074L9.57914 1.05121ZM9.35119 3.30833C9.47722 3.29142 9.6073 3.27637 9.7406 3.26303L9.74391 3.30833C9.74391 3.30833 11.0025 3.20168 12.5048 3.1769C14.0072 3.20168 15.2658 3.30833 15.2658 3.30833L15.2691 3.26303C15.4024 3.27637 15.5325 3.29142 15.6585 3.30833C19.6949 3.83554 20.288 4.44512 20.288 4.44512V11.7271C20.288 11.7271 19.6887 11.9953 18.7409 12.1933C18.0279 12.2813 16.8871 12.4153 16.0443 12.4808C15.6839 12.5089 15.2942 12.5309 14.891 12.5481L15.0022 12.5179C15.0022 12.5179 13.9272 12.5729 12.5048 12.587C11.0825 12.5729 10.0075 12.5179 10.0075 12.5179L10.1186 12.5481C9.71556 12.5309 9.32605 12.5088 8.96592 12.4808C8.12261 12.4152 6.98103 12.2812 6.26808 12.1931C5.32068 11.9951 4.72167 11.7271 4.72167 11.7271V4.44512C4.72167 4.44512 5.31477 3.83554 9.35119 3.30833ZM5.60124 14.4312C5.50021 14.4357 5.4036 14.4455 5.31478 14.462C4.72167 14.6268 4.72167 15.0222 4.72167 15.0222C4.72167 15.0222 4.56857 15.5999 4.72167 15.9118C4.83394 16.1405 5.18298 16.3731 5.18298 16.3731H8.31325L8.73753 16.4173C8.66484 16.2662 8.59685 16.1348 8.53638 16.0316C8.04958 15.2012 7.80062 14.8886 7.04733 14.5999C7.0163 14.588 6.98394 14.577 6.95052 14.567C6.79105 14.5353 6.57624 14.4973 6.34406 14.469C5.95151 14.4427 5.60124 14.471 5.60124 14.471V14.4312ZM18.0606 14.5667C18.0268 14.5768 17.9942 14.5879 17.9628 14.5999C17.2095 14.8886 16.9606 15.2012 16.4738 16.0316C16.4133 16.1348 16.3453 16.2662 16.2727 16.4173L16.6964 16.3731H19.8267C19.8267 16.3731 20.1757 16.1405 20.288 15.9118C20.4411 15.5999 20.288 15.0222 20.288 15.0222C20.288 15.0222 20.288 14.6268 19.6949 14.462C19.6062 14.4455 19.5098 14.4357 19.4089 14.4312V14.471C19.4089 14.471 19.058 14.4426 18.665 14.4691C18.4338 14.4972 18.2198 14.5351 18.0606 14.5667ZM15.1146 16.5474C15.0522 16.7364 14.9198 17.0587 14.7127 17.1771H12.7225V17.1969H12.2876V17.1771H10.2975C10.0897 17.0583 9.95714 16.7345 9.89506 16.5457C9.89487 16.5406 9.89487 16.5379 9.89487 16.5379L9.8924 16.5376C9.86642 16.4577 9.85362 16.4039 9.85362 16.4039H10.0165H14.9937H15.1565C15.1565 16.4039 15.1438 16.4576 15.1178 16.5376L15.1148 16.5379C15.1148 16.5379 15.1148 16.5412 15.1146 16.5474ZM9.4384 14.9149H9.60125H15.4089H15.5718C15.5718 14.9149 15.7579 15.1583 15.2854 15.6021H15.2085H9.8017H9.72476C9.25227 15.1583 9.4384 14.9149 9.4384 14.9149Z" fill="#4D6B53"/>
</svg>
